HIERARCHY
ROOT World_Hips
{
	OFFSET	 0.0	 0.0	 0.0
	CHANNELS 6 Xposition Yposition Zposition Zrotation Xrotation Yrotation
	JOINT Hips_RightUpLeg
	{
		OFFSET	 -93.9752578735	 0.0	 0.0
		CHANNELS 3 Zrotation Xrotation Yrotation
		JOINT RightUpLeg_RightLeg
		{
			OFFSET	 0.0	 -469.876281738	 0.0
			CHANNELS 3 Zrotation Xrotation Yrotation
			JOINT RightLeg_RightFoot
			{
				OFFSET	 0.0	 -432.28616333	 0.0
				CHANNELS 3 Zrotation Xrotation Yrotation
				JOINT RightFoot_RightToeBase
				{
					OFFSET	 0.0	 0.0	 164.456695557
					CHANNELS 3 Zrotation Xrotation Yrotation
					End Site
					{
						OFFSET	 0.0	 0.0	 75.0
					}
				}
			}
		}
	}
	JOINT Hips_LeftUpLeg
	{
		OFFSET	 93.9752578735	 0.0	 0.0
		CHANNELS 3 Zrotation Xrotation Yrotation
		JOINT LeftUpLeg_LeftLeg
		{
			OFFSET	 0.0	 -469.876281738	 0.0
			CHANNELS 3 Zrotation Xrotation Yrotation
			JOINT LeftLeg_LeftFoot
			{
				OFFSET	 0.0	 -432.28616333	 0.0
				CHANNELS 3 Zrotation Xrotation Yrotation
				JOINT LeftFoot_LeftToeBase
				{
					OFFSET	 0.0	 0.0	 164.456695557
					CHANNELS 3 Zrotation Xrotation Yrotation
					End Site
					{
						OFFSET	 0.0	 0.0	 75.0
					}
				}
			}
		}
	}
	JOINT Hips_Spine
	{
		OFFSET	 0.0	 234.938140869	 0.0
		CHANNELS 3 Zrotation Xrotation Yrotation
		JOINT Spine_RightShoulder
		{
			OFFSET	 0.0	 234.938140869	 0.0
			CHANNELS 3 Zrotation Xrotation Yrotation
			JOINT RightShoulder_RightArm
			{
				OFFSET	 0.0	 140.962875366	 0.0
				CHANNELS 3 Zrotation Xrotation Yrotation
				JOINT RightArm_RightForeArm
				{
					OFFSET	 0.0	 281.925750732	 0.0
					CHANNELS 3 Zrotation Xrotation Yrotation
					JOINT RightForeArm_RightHand
					{
						OFFSET	 0.0	 258.431945801	 0.0
						CHANNELS 3 Zrotation Xrotation Yrotation
						End Site
						{
							OFFSET	 0.0	 100.0	 0.0
						}
						JOINT RightHand_RightHandThumb1
						{
							OFFSET	 0.0	 0.0	 0.0
							CHANNELS 3 Zrotation Xrotation Yrotation
							End Site
							{
								OFFSET	 0.0	 0.0	 100.0
							}
						}
					}
				}
			}
		}
		JOINT Spine_LeftShoulder
		{
			OFFSET	 0.0	 234.938140869	 0.0
			CHANNELS 3 Zrotation Xrotation Yrotation
			JOINT LeftShoulder_LeftArm
			{
				OFFSET	 0.0	 140.962875366	 0.0
				CHANNELS 3 Zrotation Xrotation Yrotation
				JOINT LeftArm_LeftForeArm
				{
					OFFSET	 0.0	 281.925750732	 0.0
					CHANNELS 3 Zrotation Xrotation Yrotation
					JOINT LeftForeArm_LeftHand
					{
						OFFSET	 0.0	 258.431945801	 0.0
						CHANNELS 3 Zrotation Xrotation Yrotation
						End Site
						{
							OFFSET	 0.0	 100.0	 0.0
						}
						JOINT LeftHand_LeftHandThumb1
						{
							OFFSET	 0.0	 0.0	 0.0
							CHANNELS 3 Zrotation Xrotation Yrotation
							End Site
							{
								OFFSET	 0.0	 0.0	 100.0
							}
						}
					}
				}
			}
		}
		JOINT Spine_Head
		{
			OFFSET	 0.0	 300.720825195	 0.0
			CHANNELS 3 Zrotation Xrotation Yrotation
			End Site
			{
				OFFSET	 0.0	 115.0	 0.0
			}
		}
	}
}
MOTION
Frames:   9
Frame Time: 0.033333
53.7473	 -116.841	 982.567	 76.8471276073	 84.1107073624	 105.293073913	 4.95586730351	 -7.38846898585	 -15.6499716335	 6.25500341279e-15	 22.2663	 2.0880920454e-17	 4.29610980953	 18.0323035605	 -11.7376575269	 -2.00246568642e-14	 -47.2740777807	 -1.07791854211e-14	 18.669569933	 -9.26810131524	 8.44929152261	 5.74141983925e-15	 20.5362	 1.12260295989e-16	 -12.7770714695	 16.7511403744	 6.420554681	 -8.18975762075e-15	 -31.0130777807	 -3.23236067149e-15	 8.72724326612	 4.0466694623	 4.54945365865	 99.3951855334	 3.09583904141	 -3.63458848733	 58.7734832652	 40.0639262523	 -30.0899378171	 3.03627176225e-14	 61.873	 173.369	 79.714	 24.775	 1.336274096e-14	 -0.0	 0.0	 -0.0	 -106.552833552	 13.5325372043	 18.8536629281	 -49.2893079652	 43.2233562505	 28.3652073973	 2.55470952957e-14	 57.5714	 -16.1367	 51.7834	 10.3659	 5.29602176128e-15	 -0.0	 0.0	 -0.0	 8.88891753601	 13.2241724576	 -11.7629400384	 
51.7254	 -116.531	 982.295	 77.2884655928	 84.0214522215	 104.770073515	 4.92315656486	 -7.42160507021	 -15.580481731	 6.30122894888e-15	 22.4205	 1.18677740309e-17	 4.32115853197	 18.0194450616	 -11.7354199081	 -2.00485225873e-14	 -47.2996777807	 -1.07967209826e-14	 18.7480259874	 -9.17349398626	 8.22769330752	 5.72247281285e-15	 20.4718	 1.15322005987e-16	 -14.3735193447	 16.9315584481	 6.65144526412	 -8.54622654007e-15	 -31.6195777807	 -3.41764247499e-15	 8.72371885441	 3.99072348372	 4.56527210393	 99.3900761606	 3.08332563231	 -3.5756056527	 58.8621350419	 39.9625564345	 -30.3742622785	 3.01534052768e-14	 61.7079	 173.505	 79.5407	 24.4957	 1.31919234602e-14	 -0.0	 0.0	 -0.0	 -106.536396735	 13.5845327274	 18.8784835832	 -49.3587813574	 43.1981675245	 28.4923726508	 2.53558290326e-14	 57.3762	 -16.2	 51.8451	 10.1905	 5.20447371622e-15	 -0.0	 0.0	 -0.0	 8.97522184437	 13.2547098132	 -11.7683642225	 
49.5587	 -116.165	 981.975	 78.0796283658	 83.9340247	 103.905247912	 4.88900409226	 -7.39364407194	 -15.5131817087	 6.33674521461e-15	 22.5388	 4.85490695307e-18	 4.38182206761	 17.983958569	 -11.7132687007	 -2.00555188758e-14	 -47.3071777807	 -1.08018629409e-14	 18.8075452236	 -9.05872383752	 8.18268028167	 5.74115497135e-15	 20.5353	 1.12303249425e-16	 -15.1610215669	 16.5826936386	 6.64976815049	 -8.39273175688e-15	 -31.3593777807	 -3.33746550074e-15	 8.76434678814	 4.02029470957	 4.48443352655	 99.3398797631	 3.06608156519	 -3.5940951276	 58.9778754867	 40.0416962991	 -30.6764048322	 2.99432032621e-14	 61.5403	 173.583	 79.4491	 24.5066	 1.31985755247e-14	 -0.0	 0.0	 -0.0	 -106.462142326	 13.6746278715	 18.5363599591	 -49.7108275334	 42.8248533309	 28.7459551284	 2.52383833907e-14	 57.2553	 -16.2407	 52.0855	 10.1201	 5.16775765888e-15	 -0.0	 0.0	 -0.0	 8.96609382519	 13.2049860871	 -11.7181799292	 
47.385	 -115.674	 981.631	 79.0172453648	 83.8273844432	 102.813700961	 4.88751008908	 -7.33519655333	 -15.3742529901	 6.3669839024e-15	 22.6394	 -1.17594945346e-18	 4.43675743053	 17.9519888984	 -11.6794354303	 -2.00323920487e-14	 -47.2823777807	 -1.07848681273e-14	 18.8891450446	 -8.89137359453	 8.33992761943	 5.77263137916e-15	 20.6422	 1.07168462605e-16	 -15.2495292378	 16.298173766	 6.41266269863	 -8.4678386808e-15	 -31.4868777807	 -3.37662282997e-15	 8.80896318427	 4.0300132177	 4.52703272368	 99.2844391081	 3.04910591726	 -3.63186873954	 59.0906512237	 40.0651241829	 -30.9266683988	 2.97091132003e-14	 61.3515	 173.588	 79.2901	 24.5836	 1.32456000847e-14	 -0.0	 0.0	 -0.0	 -106.46276892	 13.6581083231	 18.5826143345	 -49.7863732605	 42.8558823625	 28.8650488815	 2.50464507182e-14	 57.056	 -16.2413	 52.3769	 9.92577	 5.06649097558e-15	 -0.0	 0.0	 -0.0	 9.01745811228	 13.2402862121	 -11.7279652433	 
45.0121	 -115.396	 981.274	 79.6400374091	 83.7300457144	 102.110705711	 4.83621831602	 -7.34554584761	 -15.3765383667	 6.4140922643e-15	 22.7959	 -1.06812541427e-17	 4.41407500174	 17.945646225	 -11.6243228513	 -2.00653170159e-14	 -47.3176777807	 -1.08090651782e-14	 18.9149434419	 -8.81384605573	 8.36962395882	 5.81623367032e-15	 20.7901	 9.99547443383e-17	 -15.1683737072	 16.0730013177	 6.16576621061	 -8.69772675237e-15	 -31.8749777807	 -3.49735807318e-15	 8.84577845158	 4.03071753278	 4.47031692889	 99.2419722296	 3.05769005591	 -3.59849962911	 59.1821409987	 40.0156263441	 -31.1538685251	 2.95688844518e-14	 61.2373	 173.313	 78.9528	 24.7848	 1.3368748468e-14	 -0.0	 0.0	 -0.0	 -106.489785436	 13.6376619401	 18.5216840299	 -49.8663303316	 42.7913706794	 29.019710777	 2.49290226851e-14	 56.933	 -16.4067	 52.3872	 9.72012	 4.95945614707e-15	 -0.0	 0.0	 -0.0	 9.03741506588	 13.233950471	 -11.6934634951	 
42.5792	 -114.988	 980.937	 80.618583468	 83.6227587655	 101.027713659	 4.81392902035	 -7.27123486	 -15.2704732274	 6.43859703486e-15	 22.8772	 -1.56785883778e-17	 4.50273051815	 17.915155519	 -11.6031109308	 -2.00469370379e-14	 -47.2979777807	 -1.07955557611e-14	 18.945921823	 -8.66825227707	 8.45368971325	 5.85221814034e-15	 20.912	 9.39132459971e-17	 -15.0993459352	 15.7517336696	 5.96736721656	 -8.71819649116e-15	 -31.9093777807	 -3.50817269571e-15	 8.89719916473	 4.07911353239	 4.46662624893	 99.2014425509	 3.06101215955	 -3.5810542766	 59.2428991876	 39.9610382299	 -31.3651707678	 2.94870867131e-14	 61.1703	 173.233	 78.9188	 24.9369	 1.34621094649e-14	 -0.0	 0.0	 -0.0	 -106.534308705	 13.620645829	 18.5058028627	 -49.9100385347	 42.8138938131	 29.2026882193	 2.47423630176e-14	 56.7358	 -16.4978	 52.7413	 9.49594	 4.84292673765e-15	 -0.0	 0.0	 -0.0	 9.08526530656	 13.2238405066	 -11.718687354	 
40.0751	 -114.642	 980.607	 81.311327964	 83.5103871555	 100.242949669	 4.77145709858	 -7.24782989888	 -15.2402981611	 6.47513957695e-15	 22.9983	 -2.31979475563e-17	 4.54506257788	 17.9064764366	 -11.5364653473	 -2.00639170432e-14	 -47.3161777807	 -1.08080360374e-14	 18.9531323461	 -8.55865515292	 8.47220838055	 5.87887261734e-15	 21.0022	 8.93868742004e-17	 -15.2689069602	 15.4089702276	 5.95344486221	 -8.68309788068e-15	 -31.8503777807	 -3.48963570805e-15	 8.94569482074	 4.09173108306	 4.46394200781	 99.1645327455	 3.02200735847	 -3.55407657158	 59.3321943921	 39.904647081	 -31.6010345933	 2.9403331022e-14	 61.1014	 173.103	 78.6581	 25.0315	 1.35202924561e-14	 -0.0	 0.0	 -0.0	 -106.550265063	 13.6279826777	 18.506730758	 -50.0079455757	 42.7993188185	 29.3531241768	 2.4623558974e-14	 56.6092	 -16.8218	 52.9573	 9.38725	 4.78648446905e-15	 -0.0	 0.0	 -0.0	 9.14254103738	 13.2063372548	 -11.7765168612	 
37.4184	 -114.37	 980.297	 81.8358759326	 83.3967193033	 99.6178436522	 4.71521014199	 -7.24570985845	 -15.205968056	 6.51015997486e-15	 23.1142	 -3.04794110021e-17	 4.59100132639	 17.9224282205	 -11.4619066426	 -2.00963234437e-14	 -47.3508777807	 -1.08318648313e-14	 18.9264454838	 -8.45198320281	 8.50316728324	 5.89146935561e-15	 21.0448	 8.72325587343e-17	 -15.3728890402	 15.0403867053	 6.00038941661	 -8.57629401115e-15	 -31.6703777807	 -3.43341750631e-15	 9.00543210936	 4.08730181073	 4.43727896205	 99.1354481013	 3.05646170807	 -3.53134787648	 59.3874288355	 39.8139846181	 -31.8172338988	 2.93258580954e-14	 61.0374	 173.01	 78.7927	 25.1393	 1.35867034907e-14	 -0.0	 0.0	 -0.0	 -106.60440541	 13.5466586019	 18.5100987194	 -50.0892221724	 42.8490643312	 29.5705101885	 2.44167708985e-14	 56.3868	 -16.7907	 53.5852	 9.24417	 4.71223750396e-15	 -0.0	 0.0	 -0.0	 9.15164240947	 13.2108807722	 -11.8089549819	 
34.6789	 -113.953	 980.046	 82.818662991	 83.3280583652	 98.5074954403	 4.62674120652	 -7.16990326497	 -15.1247557409	 6.54392489308e-15	 23.2258	 -3.75695357664e-17	 4.67066125308	 17.9107543205	 -11.4015031849	 -2.00789475703e-14	 -47.3322777807	 -1.08190865005e-14	 18.8511167278	 -8.2442819066	 8.61720550625	 5.88919208667e-15	 21.0371	 8.76227423511e-17	 -15.3371290375	 14.6847237104	 6.00148450672	 -8.433588156e-15	 -31.4287777807	 -3.35874847744e-15	 8.98292173464	 4.16013288276	 4.48080484959	 99.1762838526	 3.04827239052	 -3.49843252052	 59.3868170711	 39.7170477077	 -31.9841980055	 2.92426821503e-14	 60.9684	 172.903	 78.7196	 25.0799	 1.35500951862e-14	 -0.0	 0.0	 -0.0	 -106.660127933	 13.5680056406	 18.5290435487	 -50.0636298055	 42.825717719	 29.7199314839	 2.43187839143e-14	 56.2805	 -17.031	 53.619	 9.09128	 4.6329665912e-15	 -0.0	 0.0	 -0.0	 9.23850007648	 13.203584653	 -11.8605671537	 
